<?xml version="1.0" encoding="UTF-8"?>
<svg version="1.1" xmlns="http://www.w3.org/2000/svg" width="1848" height="504">
<path d="M0 0 C33.04125 -0.20625 66.0825 -0.4125 100.125 -0.625 C110.56398926 -0.71604004 121.00297852 -0.80708008 131.75830078 -0.90087891 C144.48999023 -0.94604492 144.48999023 -0.94604492 150.44723511 -0.95443726 C154.61501111 -0.96376776 158.78151795 -1.00129046 162.94894409 -1.05575562 C168.26331058 -1.12429164 173.57582872 -1.14492491 178.89059615 -1.13072276 C180.8419452 -1.13369273 182.79335805 -1.15356301 184.74432778 -1.19215131 C199.35162344 -1.46767147 199.35162344 -1.46767147 203.43179512 2.16520691 C205.01515308 4.75053915 206.03775863 7.13405285 207 10 C207.68905136 11.31597142 208.39846727 12.62186876 209.14306641 13.90722656 C209.79871576 15.15021071 210.45150147 16.39470915 211.1015625 17.640625 C211.45983627 18.3210788 211.81811005 19.00153259 212.1872406 19.7026062 C212.94526006 21.1426148 213.70209619 22.58324687 214.45779419 24.0244751 C216.45620579 27.83486975 218.46435495 31.64012338 220.47265625 35.4453125 C221.06574837 36.56950089 221.06574837 36.56950089 221.67082214 37.71640015 C224.75103903 43.54715486 227.88566443 49.34628107 231.0625 55.125 C235.96013274 64.03886373 240.73854469 73.01297225 245.5 82 C250.61234846 91.6431868 255.73363444 101.2807764 260.9375 110.875 C261.42734375 111.78378906 261.9171875 112.69257813 262.421875 113.62890625 C262.86917969 114.45003906 263.31648438 115.27117187 263.77734375 116.1171875 C264.16140381 116.82472168 264.54546387 117.53225586 264.94116211 118.26123047 C266.00526183 120.16270549 266.00526183 120.16270549 268 122 C268.72364746 120.62787354 268.72364746 120.62787354 269.46191406 119.22802734 C285.6069337 88.6254027 285.6069337 88.6254027 293.45019531 74.34912109 C297.87630249 66.27291254 302.18875992 58.13786644 306.5 50 C311.50229463 40.56180739 316.51684651 31.13151147 321.625 21.75 C322.29692383 20.5125 322.29692383 20.5125 322.98242188 19.25 C323.82370475 17.71079186 324.68550041 16.18253011 325.57203579 14.66893387 C327.08183857 11.99595564 327.08183857 11.99595564 328.11937809 8.94834518 C329.69033562 5.25541045 331.1238688 2.82187523 334 0 C340.38659616 -1.80644413 346.65551247 -1.5190353 353.24584961 -1.36230469 C355.25917311 -1.35862697 357.27251208 -1.36023351 359.28582859 -1.36668777 C364.67152118 -1.36939401 370.05400576 -1.29992559 375.43894196 -1.21536255 C380.49426725 -1.14694792 385.54881799 -1.143802 390.60461426 -1.13525391 C405.3826668 -1.07232093 420.16012408 -0.90478593 434.9375 -0.75 C484.4684375 -0.37875 484.4684375 -0.37875 535 0 C535 117.81 535 235.62 535 357 C490.78 357 446.56 357 401 357 C400.505 247.605 400.505 247.605 400 136 C394.74191406 151.78585938 389.48382812 167.57171875 384.06640625 183.8359375 C380.74430541 193.80734661 377.42212913 203.77873048 374.09960938 213.75 C372.35503889 218.98566943 370.61048716 224.22134512 368.8659668 229.45703125 C368.64730829 230.11327051 368.42864979 230.76950978 368.20336527 231.44563508 C364.66985993 242.05050451 361.13741456 252.65572672 357.60535801 263.26107876 C353.98251186 274.13895727 350.35851041 285.01645025 346.73349422 295.89360583 C344.69656804 302.00569127 342.66017555 308.11795338 340.62503242 314.23063278 C338.71145 319.97814205 336.79647686 325.72518601 334.88041306 331.47186852 C334.17561862 333.58652807 333.47134251 335.70136045 332.76761055 337.81637383 C331.81032242 340.69317822 330.85120976 343.56936779 329.89161682 346.44540405 C329.61049044 347.29169605 329.32936405 348.13798804 329.03971869 349.00992525 C327.11412121 354.77175758 327.11412121 354.77175758 326 357 C287.39 357 248.78 357 209 357 C184.58 283.74 160.16 210.48 135 135 C134.505 244.89 134.505 244.89 134 357 C89.78 357 45.56 357 0 357 C0 239.19 0 121.38 0 0 Z " fill="#0084FF" transform="translate(438,43)"/>
<path d="M0 0 C0.81266368 -0.00367669 1.62532736 -0.00735338 2.46261722 -0.01114148 C5.17192816 -0.02210929 7.88120065 -0.02601046 10.5905304 -0.02983093 C12.53938415 -0.03610112 14.48823672 -0.04274841 16.43708801 -0.04974365 C22.82847775 -0.07073176 29.21986756 -0.08114559 35.61128235 -0.09111023 C37.81952743 -0.09516065 40.02777239 -0.09927766 42.23601723 -0.10346031 C52.62001905 -0.12250556 63.00401383 -0.13673436 73.38802975 -0.14507228 C85.33128049 -0.15482291 97.27434481 -0.18108837 109.21752995 -0.22157317 C118.47480881 -0.25186383 127.73203466 -0.26655362 136.98936206 -0.26985329 C142.50533861 -0.27219027 148.02111591 -0.28097202 153.5370388 -0.30631447 C158.73854621 -0.3298259 163.93972645 -0.33373704 169.1412735 -0.32355309 C171.03409485 -0.32306306 172.92693358 -0.32922263 174.81970406 -0.34310913 C207.11104542 -0.56645709 236.04618869 9.6042864 259.3495636 32.39717102 C273.44680647 46.66260901 282.95629486 64.68961037 287.6620636 84.14717102 C287.836651 84.86517883 288.0112384 85.58318665 288.19111633 86.32295227 C290.05389937 95.13739406 289.9167301 103.89028279 289.8573761 112.84638977 C289.85442833 114.34431306 289.85239242 115.84223842 289.85127258 117.34016418 C289.84087024 122.83836495 289.81294802 128.33652135 289.7870636 133.83467102 C289.7458136 146.14779602 289.7045636 158.46092102 289.6620636 171.14717102 C242.4720636 171.14717102 195.2820636 171.14717102 146.6620636 171.14717102 C146.3320636 161.24717102 146.0020636 151.34717102 145.6620636 141.14717102 C141.34357435 130.35094789 137.43422729 122.1604315 126.6620636 117.14717102 C119.30129461 114.57782467 112.41706336 113.69860446 104.65815735 113.74873352 C103.6542244 113.74586334 102.65029144 113.74299316 101.61593628 113.74003601 C99.51094492 113.73801026 97.4059341 113.74343481 95.30097961 113.75605774 C92.10385067 113.77214944 88.90798239 113.75614874 85.71089172 113.73701477 C83.65164418 113.73899714 81.59239741 113.74284067 79.53315735 113.74873352 C78.12023659 113.73962448 78.12023659 113.73962448 76.67877197 113.73033142 C67.54301263 113.82582238 59.90724505 115.85717127 52.35346985 121.06123352 C50.6620636 122.14717102 50.6620636 122.14717102 47.6620636 123.14717102 C46.57752552 124.99788722 46.57752552 124.99788722 45.6620636 127.14717102 C44.42674548 129.0674572 43.1599177 130.96284407 41.8808136 132.85420227 C38.75403739 138.7369511 38.36405294 144.4166267 38.37153625 150.93721008 C38.36481903 151.78863083 38.35810181 152.64005157 38.35118103 153.51727295 C38.33227402 156.31584098 38.32828034 159.11416819 38.3261261 161.91279602 C38.31969244 163.87184241 38.31296367 165.83088784 38.30595398 167.78993225 C38.29399896 171.89194464 38.29027126 175.99387292 38.29145813 180.09590149 C38.29166106 185.32880344 38.26437739 190.56116076 38.22991371 195.79393387 C38.20757491 199.83994478 38.20362275 203.88582615 38.20467758 207.9318924 C38.20233142 209.85983402 38.19356395 211.78777976 38.17801285 213.7156601 C38.08462744 226.48981413 38.3712291 237.97995435 46.8417511 248.36592102 C55.75044386 257.08344012 67.40851805 259.61858476 79.46284485 259.58076477 C80.96019417 259.58862755 80.96019417 259.58862755 82.48779297 259.59664917 C84.58615699 259.60303147 86.68455697 259.60178198 88.78291321 259.59321594 C91.95618396 259.58472023 95.12764245 259.61349926 98.30073547 259.6452179 C111.9270899 259.69312286 124.81938013 259.52729108 135.7245636 250.20576477 C148.66502054 236.45652927 146.02414068 221.28485871 146.6620636 202.14717102 C193.8520636 202.14717102 241.0420636 202.14717102 289.6620636 202.14717102 C289.7548761 220.49310852 289.7548761 220.49310852 289.8495636 239.20967102 C289.87687561 243.04084534 289.90418762 246.87201965 289.93232727 250.81929016 C289.94587708 255.57575989 289.94587708 255.57575989 289.94839478 257.81756592 C289.95293696 259.35026683 289.96335004 260.88295851 289.97879028 262.41558838 C290.10834794 275.97934494 288.71268659 288.72712363 284.0370636 301.58467102 C283.78545471 302.28221497 283.53384583 302.97975891 283.27461243 303.69844055 C275.25934684 324.93399971 259.97097791 344.12013475 240.6620636 356.14717102 C239.79710266 356.71822571 238.93214172 357.2892804 238.04096985 357.87763977 C232.11363471 361.60174909 225.99519902 364.40857127 219.4745636 366.89717102 C218.75792542 367.17883118 218.04128723 367.46049133 217.30293274 367.75068665 C202.80783152 373.03137128 187.84025581 373.59216148 172.5983429 373.55122375 C170.6480114 373.55694204 168.69768325 373.56391186 166.74736023 373.57202148 C161.50127442 373.58980818 156.25535718 373.58881192 151.0092504 373.5830791 C146.60626894 373.57996573 142.20331887 373.58610346 137.8003419 373.59211785 C127.40078777 373.60611428 117.00131588 373.60464297 106.60176086 373.59321594 C95.92544946 373.58174298 85.24938952 373.59580791 74.57311124 373.62261242 C65.35807695 373.64486947 56.14312101 373.65138428 46.92806178 373.64553601 C41.44579178 373.64218865 35.9636828 373.64443183 30.48143578 373.66178703 C25.32080312 373.67741439 20.16053882 373.67312822 14.99991989 373.65448189 C13.12322744 373.65083907 11.24650672 373.6537759 9.36984062 373.66436768 C-22.96949697 373.83273015 -51.48802815 363.40833503 -75.0254364 340.89717102 C-93.11183975 322.10201166 -105.39815443 296.09403515 -105.48510742 269.72673035 C-105.48878411 269.00067569 -105.4924608 268.27462103 -105.4962489 267.52656472 C-105.50722248 265.10435716 -105.51111891 262.68219261 -105.51493835 260.25996399 C-105.52120824 258.51815151 -105.52785551 256.77634036 -105.53485107 255.03453064 C-105.5558476 249.31948265 -105.5662557 243.60443456 -105.57621765 237.88935852 C-105.58026815 235.91421114 -105.58438515 233.93906389 -105.58856773 231.96391678 C-105.60761702 222.67341268 -105.62184341 213.38291648 -105.6301797 204.09239662 C-105.63992351 193.41240712 -105.66616915 182.73262645 -105.7066806 172.05271041 C-105.73699821 163.77208891 -105.75166367 155.49152669 -105.75496072 147.21085083 C-105.75729521 142.27835503 -105.76604313 137.34608232 -105.79142189 132.4136467 C-105.81498021 127.75959886 -105.81882643 123.10591657 -105.80866051 118.45182419 C-105.80817155 116.76057202 -105.81429837 115.06930013 -105.82821655 113.37810516 C-106.07401599 81.68993784 -95.03152933 53.58566865 -73.2129364 30.52217102 C-53.78120635 11.77273486 -27.12842233 -0.00668602 0 0 Z " fill="#BFB9B0" transform="translate(1088.3379364013672,33.85282897949219)"/>
<path d="M0 0 C1.59751113 -0.00436357 3.19502018 -0.00955207 4.79252625 -0.01548767 C9.08067849 -0.02872428 13.36874177 -0.02947282 17.65691042 -0.02692437 C21.27100093 -0.02584237 24.88507434 -0.03076987 28.49916112 -0.03552979 C37.05332786 -0.04657591 45.6074507 -0.04709261 54.16162109 -0.04101562 C62.8961308 -0.03500418 71.63047826 -0.0472259 80.36496031 -0.06858569 C87.93601121 -0.08639862 95.50701145 -0.09217188 103.07808244 -0.08894795 C107.56749728 -0.08716309 112.05679689 -0.08948079 116.54619217 -0.10366249 C209.95625545 -0.37339592 209.95625545 -0.37339592 242.06396484 30.1105957 C242.77939453 30.82473633 243.49482422 31.53887695 244.23193359 32.2746582 C245.16585937 33.19118164 245.16585937 33.19118164 246.11865234 34.1262207 C251.72083699 40.04313483 255.44981889 47.12710245 259.23193359 54.2746582 C259.92802734 55.56629883 259.92802734 55.56629883 260.63818359 56.8840332 C269.62454674 74.97196928 272.74693172 95.99033879 274.41943359 115.8996582 C274.50354492 116.90029297 274.58765625 117.90092773 274.67431641 118.93188477 C275.28784132 127.109561 275.23193359 135.01011931 275.23193359 143.2746582 C226.39193359 143.2746582 177.55193359 143.2746582 127.23193359 143.2746582 C126.24193359 140.9646582 125.25193359 138.6546582 124.23193359 136.2746582 C118.81301932 131.26665686 111.66458641 131.12472924 104.69116211 131.09765625 C103.9490448 131.09108505 103.20692749 131.08451385 102.44232178 131.07774353 C99.99849329 131.05811096 97.55472583 131.04637316 95.11083984 131.03637695 C93.85469029 131.03026366 93.85469029 131.03026366 92.57316399 131.02402687 C88.14423752 131.00321332 83.71534165 130.98888884 79.28637695 130.97949219 C74.7188061 130.96841128 70.15172017 130.93397881 65.58432102 130.89432049 C62.06437789 130.86815936 58.54455076 130.85980103 55.02451897 130.85621071 C53.34083706 130.85134688 51.65716026 130.83973862 49.97357368 130.82117271 C47.61602434 130.79678117 45.25973693 130.7977452 42.90209961 130.8046875 C42.21151962 130.79187744 41.52093964 130.77906738 40.80943298 130.76586914 C35.84815335 130.81895834 33.05309188 132.17558841 29.23193359 135.2746582 C26.7723515 138.76567795 25.99609 141.27790798 26.35693359 145.4621582 C27.23120756 149.66259656 27.23120756 149.66259656 30.23193359 152.2746582 C33.03391908 153.20865336 35.14317588 153.50649672 38.06419373 153.70967102 C39.06176697 153.78099243 40.05934021 153.85231384 41.08714294 153.92579651 C42.18220657 154.0000737 43.2772702 154.07435089 44.40551758 154.15087891 C45.5611319 154.2323819 46.71674622 154.31388489 47.90737915 154.39785767 C51.09429041 154.62191052 54.28142088 154.842485 57.4686687 155.06168771 C60.85717883 155.29567366 64.24535235 155.5344345 67.63356018 155.77275085 C74.11263473 156.22780959 80.59196111 156.67916602 87.07140356 157.12895316 C94.93559877 157.67489075 102.79962554 158.22322833 110.66357422 158.77270508 C111.35968787 158.82134382 112.05580153 158.86998256 112.77300954 158.92009521 C126.6103248 159.88729216 140.44694759 160.86412221 154.28287613 161.85095918 C158.84870829 162.1765354 163.41471658 162.49955981 167.98077393 162.82196045 C174.02172506 163.24970491 180.06182732 163.68798211 186.10142708 164.13438988 C188.29688187 164.29528414 190.49257092 164.45302058 192.68850517 164.60723305 C216.00800995 166.24997807 239.18232619 169.30963563 256.23193359 187.2746582 C269.32167817 202.76534358 275.44768528 218.95166246 275.32958984 239.14575195 C275.32746742 240.52924583 275.32746742 240.52924583 275.32530212 241.94068909 C275.31973866 244.86454618 275.30719302 247.78832455 275.29443359 250.7121582 C275.28941387 252.70369355 275.28485179 254.69523011 275.28076172 256.68676758 C275.26978121 261.54942777 275.25254198 266.41202967 275.23193359 271.2746582 C270.1734615 270.30593481 265.38659357 268.78595397 260.48583984 267.2121582 C244.91851121 262.72697348 228.20883462 265.73558156 214.10693359 273.3996582 C199.85478521 282.69453758 191.10004028 295.64398482 187.23193359 312.2746582 C184.20067659 328.2297204 187.57120867 344.53976738 196.23193359 358.2746582 C198.03633637 360.54740697 199.88679275 362.67379941 201.91162109 364.7512207 C203.23193359 366.2746582 203.23193359 366.2746582 203.23193359 368.2746582 C200.23429061 369.09602324 197.23345262 369.90508309 194.23193359 370.7121582 C192.97316406 371.05730469 192.97316406 371.05730469 191.68896484 371.40942383 C190.44179687 371.74296875 190.44179687 371.74296875 189.16943359 372.08325195 C188.41533203 372.28748779 187.66123047 372.49172363 186.88427734 372.70214844 C180.43367591 374.09451408 174.09686696 374.4224895 167.52577209 374.4151001 C166.68563598 374.41807122 165.84549986 374.42104234 164.97990507 374.4241035 C162.18377732 374.43272788 159.3876927 374.43429343 156.59155273 374.43579102 C154.57857167 374.44042374 152.56559149 374.44544901 150.5526123 374.45083618 C145.09550738 374.46392111 139.63841474 374.47039787 134.18129659 374.47484684 C130.76526111 374.47778478 127.34922893 374.481891 123.93319511 374.48635101 C113.22616946 374.50001763 102.51915141 374.50968754 91.81211764 374.5135529 C79.48853908 374.51802728 67.16507179 374.53554993 54.84152704 374.5645535 C45.29298144 374.58623898 35.74446698 374.59626089 26.19589704 374.59759402 C20.50401392 374.59863743 14.8122355 374.60444542 9.12037849 374.62241364 C3.75803585 374.63901272 -1.60412473 374.64099293 -6.96648407 374.63227463 C-8.9218374 374.63151046 -10.877201 374.6357638 -12.83252907 374.64573288 C-40.69257505 374.77930953 -66.71184599 368.82566639 -87.15087891 348.8684082 C-88.01455078 348.0124707 -88.87822266 347.1565332 -89.76806641 346.2746582 C-90.44611328 345.6455957 -91.12416016 345.0165332 -91.82275391 344.3684082 C-102.8363792 333.99112571 -110.19084064 319.64033658 -115.08056641 305.4621582 C-115.31074463 304.81311523 -115.54092285 304.16407227 -115.77807617 303.49536133 C-123.42616915 279.91444246 -120.76806641 255.87557264 -120.76806641 231.2746582 C-71.92806641 231.2746582 -23.08806641 231.2746582 27.23193359 231.2746582 C28.22193359 234.7396582 28.22193359 234.7396582 29.23193359 238.2746582 C35.01822848 243.05464094 39.77822749 243.42509198 47.04223633 243.45166016 C48.21612411 243.46151695 48.21612411 243.46151695 49.41372681 243.47157288 C51.99766136 243.49124819 54.58153805 243.50295323 57.16552734 243.51293945 C58.4911201 243.51905274 58.4911201 243.51905274 59.84349251 243.52528954 C64.51764821 243.54612186 69.19177476 243.56043798 73.8659668 243.56982422 C78.69260487 243.58090568 83.5187841 243.6153335 88.34525967 243.65499592 C92.05903484 243.68113044 95.77269987 243.68951304 99.48655891 243.6931057 C101.26596247 243.69797687 103.04536094 243.70960597 104.82467461 243.72814369 C107.31423397 243.75247692 109.8025946 243.75158161 112.29223633 243.74462891 C113.02538559 243.75743896 113.75853485 243.77024902 114.51390076 243.78344727 C119.37467678 243.73400337 121.80083101 242.69622262 125.23193359 239.2746582 C127.50214906 236.24770425 127.56114999 233.09414701 127.79052734 229.37231445 C126.89220985 225.9989124 124.85562208 224.49761133 122.23193359 222.2746582 C119.11665167 221.3213865 119.11665167 221.3213865 115.56811523 221.11376953 C114.88382226 221.04654851 114.19952929 220.97932749 113.49450016 220.91006947 C111.940482 220.76082535 110.38540646 220.62233871 108.82963943 220.49258804 C106.03303283 220.25797178 103.24042636 219.99245064 100.44699097 219.7227478 C94.8226107 219.1857921 89.19592264 218.67847566 83.56811333 218.17886925 C79.75210532 217.83991256 75.93645279 217.49717022 72.12086487 217.15351868 C61.94890851 216.23806258 51.77642529 215.32852466 41.60376608 214.42091477 C-13.37930385 209.51438372 -13.37930385 209.51438372 -38.2202282 206.97522926 C-40.18843248 206.77529151 -42.15703829 206.57925741 -44.12607002 206.38764 C-67.14855077 204.1352155 -86.17094188 199.26813197 -102.76806641 182.2746582 C-103.44611328 181.61723633 -104.12416016 180.95981445 -104.82275391 180.2824707 C-119.53033543 165.05195295 -121.43380972 144.50579151 -121.23461914 124.51416016 C-121.20564636 121.34590091 -121.21405474 118.1793219 -121.22705078 115.01098633 C-121.21255878 100.4779237 -120.21743598 86.54407743 -115.14306641 72.7746582 C-114.89218262 72.08235107 -114.64129883 71.39004395 -114.3828125 70.67675781 C-109.82581385 58.66396526 -103.19435922 47.94734016 -94.76806641 38.2746582 C-94.25244141 37.61594727 -93.73681641 36.95723633 -93.20556641 36.27856445 C-77.4107124 16.65345835 -50.4384864 4.01274361 -25.85903931 1.17854309 C-24.75351634 1.05093242 -24.75351634 1.05093242 -23.62565958 0.92074376 C-15.74704846 0.07517645 -7.91599879 -0.0146053 0 0 Z " fill="#BFB9B0" transform="translate(1508.76806640625,32.725341796875)"/>
<path d="M0 0 C46.385625 -0.04125 92.77125 -0.0825 140.5625 -0.125 C155.20052979 -0.14320801 169.83855957 -0.16141602 184.92016602 -0.18017578 C202.81628418 -0.18920898 202.81628418 -0.18920898 211.198349 -0.19088745 C217.04353961 -0.19274822 222.88869174 -0.20006632 228.73387146 -0.21115112 C235.48426084 -0.22393351 242.23461347 -0.22965985 248.98501503 -0.2268899 C252.43388727 -0.22569145 255.88267752 -0.22751493 259.3315345 -0.23843026 C285.53532032 -0.30926009 307.81473869 2.07273389 331 15 C331.97453125 15.53238281 332.9490625 16.06476562 333.953125 16.61328125 C357.13511923 30.27167844 373.18634538 54.32415336 380 80 C384.23190878 96.92398758 383.44273291 114.4301105 383.40297651 131.74290657 C383.39528405 136.15067194 383.40245173 140.55842025 383.40713501 144.96618652 C383.41256505 152.36274632 383.40547382 159.75921571 383.39111328 167.15576172 C383.37479212 175.65937023 383.38008259 184.16276281 383.3965925 192.6663661 C383.41028643 200.01898507 383.41208871 207.37153972 383.40427649 214.72416735 C383.39964309 219.0929775 383.39885361 223.46168678 383.40888596 227.83049011 C383.47482025 261.11820694 381.26853727 292.92475201 358 319 C357.33742188 319.804375 356.67484375 320.60875 355.9921875 321.4375 C338.34229541 342.27870099 312.7464809 354.19640363 285.79583001 356.795699 C280.88293251 357.15470147 275.97748261 357.13363642 271.05368042 357.12025452 C269.89228043 357.12111053 268.73088043 357.12196655 267.5342865 357.12284851 C264.33154992 357.12420792 261.12885448 357.12110112 257.92612275 357.11607273 C254.41145796 357.11168375 250.89679455 357.11316881 247.38212776 357.11389065 C240.56979389 357.11442079 233.75747328 357.10981829 226.94514281 357.10338932 C219.0598628 357.09617148 211.17459068 357.09539359 203.28930664 357.09460449 C182.48453567 357.08936043 161.67976763 357.07539924 140.875 357.0625 C94.38625 357.041875 47.8975 357.02125 0 357 C0 239.19 0 121.38 0 0 Z M114 118 C114 157.93 114 197.86 114 239 C143.2359375 239.12375 143.2359375 239.12375 173.0625 239.25 C179.21140869 239.28641602 185.36031738 239.32283203 191.69555664 239.36035156 C197.21861583 239.37373123 197.21861583 239.37373123 202.74168396 239.3817749 C205.19723918 239.38790784 207.65278252 239.40195679 210.10826111 239.42230225 C213.83288426 239.45161455 217.55677279 239.45562295 221.28149414 239.45410156 C222.37114251 239.468494 223.46079088 239.48288643 224.5834589 239.497715 C230.94993068 239.46294284 234.83760401 238.82239624 240 235 C244.92108965 228.78388676 245.15090555 223.84530406 245.16113281 216.13574219 C245.16609772 215.24092636 245.17106262 214.34611053 245.17617798 213.42417908 C245.19077757 210.46506987 245.19759835 207.5060143 245.203125 204.546875 C245.20887876 202.48667398 245.21463647 200.42647297 245.22039795 198.36627197 C245.23090202 194.04544831 245.23674841 189.72464322 245.24023438 185.40380859 C245.24571436 179.87805935 245.26973441 174.3525571 245.29820633 168.82688522 C245.31686825 164.56997978 245.32204023 160.31313338 245.32357025 156.05619049 C245.32658985 154.01971335 245.33459489 151.98323708 245.34775543 149.94680023 C245.3648883 147.09162336 245.36291786 144.23704394 245.35644531 141.38183594 C245.37026749 140.12997749 245.37026749 140.12997749 245.3843689 138.85282898 C245.34296599 132.99656362 244.69504326 126.97679313 240.58342361 122.43532944 C236.52224665 118.91428603 233.37313866 117.87421166 228.12153625 117.87974548 C227.11821668 117.87836799 226.1148971 117.87699049 225.0811739 117.87557125 C223.42511269 117.88096841 223.42511269 117.88096841 221.7355957 117.88647461 C219.96572815 117.88629381 219.96572815 117.88629381 218.16010571 117.88610935 C214.33197853 117.88685712 210.50389974 117.89447922 206.67578125 117.90234375 C204.31587752 117.90381359 201.95597346 117.90483404 199.59606934 117.90539551 C190.83487459 117.91064352 182.07368682 117.92460466 173.3125 117.9375 C153.739375 117.958125 134.16625 117.97875 114 118 Z " fill="#0084FF" transform="translate(52,43)"/>
<path d="M0 0 C11.05348044 8.4455499 17.81763461 19.19693995 20.5 32.91015625 C21.88415619 47.11894331 19.18199496 60.30838125 10.5 71.91015625 C1.07534151 83.05332253 -10.7866884 89.86651357 -25.4296875 91.29296875 C-39.45660466 91.91488508 -52.13759189 87.98290727 -62.90625 78.875 C-73.14373059 69.20058084 -79.34035413 57.18063674 -79.97290039 42.9543457 C-80.1705774 28.04308777 -74.88993095 15.5756272 -64.8125 4.66015625 C-46.5991388 -12.46321616 -20.41290428 -13.97453186 0 0 Z " fill="#0184FF" transform="translate(1783.5,316.08984375)"/>
<path d="M0 0 C10 0 10 0 12.296875 1.8359375 C12.77640625 2.67382812 13.2559375 3.51171875 13.75 4.375 C14.29269531 5.27734375 14.83539063 6.1796875 15.39453125 7.109375 C15.92433594 8.06328125 16.45414062 9.0171875 17 10 C18.14357606 11.87637758 19.28928582 13.75145704 20.4375 15.625 C21.283125 17.06875 22.12875 18.5125 23 20 C23.33 13.4 23.66 6.8 24 0 C26.97 0 29.94 0 33 0 C33.33 10.89 33.66 21.78 34 33 C37.63 22.11 41.26 11.22 45 0 C49.29 0 53.58 0 58 0 C61.63 10.23 65.26 20.46 69 31 C69.33 20.77 69.66 10.54 70 0 C74.62 0 79.24 0 84 0 C86.7047418 6.89709158 88.85761818 13.90797742 91 21 C93.31 14.07 95.62 7.14 98 0 C102.62 0 107.24 0 112 0 C112 12.21 112 24.42 112 37 C109.03 37 106.06 37 103 37 C102.67 30.4 102.34 23.8 102 17 C100.06702402 23.20682726 100.06702402 23.20682726 98.14086914 29.41577148 C97.89973389 30.18477783 97.65859863 30.95378418 97.41015625 31.74609375 C97.16402588 32.53685303 96.91789551 33.3276123 96.66430664 34.14233398 C96 36 96 36 95 37 C92.36 37 89.72 37 87 37 C85.02 31.39 83.04 25.78 81 20 C80.67 25.61 80.34 31.22 80 37 C73.4 37 66.8 37 60 37 C58 33 58 33 58 30 C54.04 30.33 50.08 30.66 46 31 C45.34 32.98 44.68 34.96 44 37 C25.36664855 38.62769499 25.36664855 38.62769499 20.22265625 35.08984375 C18.43206633 32.46283314 17.19990849 29.94079268 16 27 C15.03691876 25.28254704 14.05884286 23.57337306 13.0625 21.875 C12.0415625 19.956875 12.0415625 19.956875 11 18 C10.67 24.27 10.34 30.54 10 37 C6.7 37 3.4 37 0 37 C0 24.79 0 12.58 0 0 Z M51 11 C50.01 14.96 49.02 18.92 48 23 C50.31 23 52.62 23 55 23 C54.71788123 21.3733152 54.42397625 19.74867104 54.125 18.125 C53.88136719 16.76761719 53.88136719 16.76761719 53.6328125 15.3828125 C53.16955297 12.83494012 53.16955297 12.83494012 51 11 Z M79 13 C80 17 80 17 80 17 Z " fill="#CDC6BC" transform="translate(295,419)"/>
<path d="M0 0 C4.73726593 2.39432313 6.59412908 5.75781973 8.80078125 10.34765625 C9.13078125 6.71765625 9.46078125 3.08765625 9.80078125 -0.65234375 C16.1108839 -1.51674137 16.1108839 -1.51674137 19.80078125 -0.65234375 C22.89398998 2.23064691 24.76010708 5.67344971 26.80078125 9.34765625 C27.94435731 11.22403383 29.09006707 13.09911329 30.23828125 14.97265625 C31.08390625 16.41640625 31.92953125 17.86015625 32.80078125 19.34765625 C33.13078125 12.74765625 33.46078125 6.14765625 33.80078125 -0.65234375 C36.77078125 -0.65234375 39.74078125 -0.65234375 42.80078125 -0.65234375 C43.13078125 10.23765625 43.46078125 21.12765625 43.80078125 32.34765625 C47.43078125 21.45765625 51.06078125 10.56765625 54.80078125 -0.65234375 C59.09078125 -0.65234375 63.38078125 -0.65234375 67.80078125 -0.65234375 C69.51578638 4.13271821 71.22461305 8.9199239 72.92773438 13.70922852 C73.50806813 15.33841491 74.09009006 16.96700097 74.67382812 18.5949707 C75.51225494 20.93415301 76.34460062 23.27542218 77.17578125 25.6171875 C77.4382666 26.34541214 77.70075195 27.07363678 77.97119141 27.82392883 C79.02077277 30.79675278 79.80078125 33.16991243 79.80078125 36.34765625 C76.50078125 36.34765625 73.20078125 36.34765625 69.80078125 36.34765625 C67.80078125 32.34765625 67.80078125 32.34765625 67.80078125 29.34765625 C63.84078125 29.67765625 59.88078125 30.00765625 55.80078125 30.34765625 C54.81078125 33.31765625 54.81078125 33.31765625 53.80078125 36.34765625 C35.1674298 37.97535124 35.1674298 37.97535124 30.0234375 34.4375 C28.23284758 31.81048939 27.00068974 29.28844893 25.80078125 26.34765625 C24.83770001 24.63020329 23.85962411 22.92102931 22.86328125 21.22265625 C21.84234375 19.30453125 21.84234375 19.30453125 20.80078125 17.34765625 C20.47078125 23.61765625 20.14078125 29.88765625 19.80078125 36.34765625 C16.50078125 36.34765625 13.20078125 36.34765625 9.80078125 36.34765625 C9.47078125 33.04765625 9.14078125 29.74765625 8.80078125 26.34765625 C8.24390625 27.25515625 7.68703125 28.16265625 7.11328125 29.09765625 C4.55770994 32.68926999 2.11696182 35.38923671 -2.01171875 37.09765625 C-8.63098716 37.85414407 -13.2831593 37.69636915 -19.19921875 34.34765625 C-24.10901729 29.43785771 -25.95819488 25.33635222 -26.51171875 18.47265625 C-26.33070558 12.55578839 -24.58071187 7.97710967 -20.76171875 3.47265625 C-14.72729126 -1.53150313 -7.54440787 -2.23786166 0 0 Z M-15.19921875 11.34765625 C-17.05182745 15.05287366 -16.65705037 19.30347693 -16.19921875 23.34765625 C-14.3712676 26.66504908 -13.2442535 27.91892405 -9.76171875 29.34765625 C-6.37513863 29.34765625 -4.84640071 28.42247454 -2.19921875 26.34765625 C0.36469716 22.14890893 0.48447835 18.14208213 -0.19921875 13.34765625 C-2.13655842 9.77102916 -3.32082192 8.66537425 -7.13671875 7.28515625 C-11.09422596 7.3659217 -12.44516495 8.59360245 -15.19921875 11.34765625 Z M60.80078125 10.34765625 C59.81078125 14.30765625 58.82078125 18.26765625 57.80078125 22.34765625 C60.11078125 22.34765625 62.42078125 22.34765625 64.80078125 22.34765625 C64.51866248 20.72097145 64.2247575 19.09632729 63.92578125 17.47265625 C63.68214844 16.11527344 63.68214844 16.11527344 63.43359375 14.73046875 C62.97033422 12.18259637 62.97033422 12.18259637 60.80078125 10.34765625 Z " fill="#CCC5BB" transform="translate(845.19921875,419.65234375)"/>
<path d="M0 0 C4.29 0 8.58 0 13 0 C16.63 10.23 20.26 20.46 24 31 C24.33 20.77 24.66 10.54 25 0 C27.990625 -0.061875 30.98125 -0.12375 34.0625 -0.1875 C34.99070557 -0.21481201 35.91891113 -0.24212402 36.87524414 -0.27026367 C43.17076718 -0.33282203 48.1845922 0.27671188 52.91015625 4.84765625 C55.00804155 8.99079173 54.65282781 13.49077695 54 18 C52.71332828 19.70294787 51.38903267 21.37946188 50 23 C50.85503422 27.4651787 52.94082337 30.88164674 55 35 C55.33 23.45 55.66 11.9 56 0 C60.2075 -0.0928125 60.2075 -0.0928125 64.5 -0.1875 C65.8003418 -0.22846802 65.8003418 -0.22846802 67.12695312 -0.27026367 C73.02896817 -0.33246759 78.98165307 0.26525614 83.56420898 4.41723633 C88.5049074 10.11155594 88.3480847 15.29828455 88.2734375 22.5390625 C87.89455838 27.33458959 87.10882963 29.3331753 84 33 C78.87270094 36.48370631 75.64634933 37.49231083 69.31640625 37.390625 C68.61603745 37.38496521 67.91566864 37.37930542 67.19407654 37.37347412 C64.98282055 37.3512922 62.77325627 37.30113806 60.5625 37.25 C59.05275797 37.22991115 57.54299025 37.21166458 56.03320312 37.1953125 C52.35493001 37.15148947 48.67763044 37.08259341 45 37 C44.61328125 36.21753906 44.2265625 35.43507813 43.828125 34.62890625 C43.30734375 33.61699219 42.7865625 32.60507812 42.25 31.5625 C41.48429687 30.04849609 41.48429687 30.04849609 40.703125 28.50390625 C39.10315255 25.55420755 39.10315255 25.55420755 35 25 C35 28.96 35 32.92 35 37 C28.4 37 21.8 37 15 37 C13 33 13 33 13 30 C9.04 30.33 5.08 30.66 1 31 C0.34 32.98 -0.32 34.96 -1 37 C-4.63 37 -8.26 37 -12 37 C-8.04 24.79 -4.08 12.58 0 0 Z M35 8 C35 10.97 35 13.94 35 17 C39.0100934 17.17864631 39.0100934 17.17864631 43 17 C43.66 16.34 44.32 15.68 45 15 C44.67028521 11.70285207 44.3773161 10.3773161 42 8 C38.41656024 7.83322718 38.41656024 7.83322718 35 8 Z M66 8 C66 14.93 66 21.86 66 29 C73.45570612 29.81294768 73.45570612 29.81294768 76.4375 27.125 C79.31825663 23.20717098 79.50249485 19.75999668 79 15 C77.64039429 11.70832303 76.73963128 10.4087436 73.625 8.6875 C70.64611259 7.78886717 70.64611259 7.78886717 66 8 Z M6 11 C5.01 14.96 4.02 18.92 3 23 C5.31 23 7.62 23 10 23 C9.71788123 21.3733152 9.42397625 19.74867104 9.125 18.125 C8.88136719 16.76761719 8.88136719 16.76761719 8.6328125 15.3828125 C8.16955297 12.83494012 8.16955297 12.83494012 6 11 Z " fill="#CDC6BC" transform="translate(1519,419)"/>
<path d="M0 0 C4.73726593 2.39432313 6.59412908 5.75781973 8.80078125 10.34765625 C9.13078125 6.71765625 9.46078125 3.08765625 9.80078125 -0.65234375 C16.1108839 -1.51674137 16.1108839 -1.51674137 19.80078125 -0.65234375 C22.89398998 2.23064691 24.76010708 5.67344971 26.80078125 9.34765625 C27.94435731 11.22403383 29.09006707 13.09911329 30.23828125 14.97265625 C31.08390625 16.41640625 31.92953125 17.86015625 32.80078125 19.34765625 C33.13078125 12.74765625 33.46078125 6.14765625 33.80078125 -0.65234375 C36.77078125 -0.65234375 39.74078125 -0.65234375 42.80078125 -0.65234375 C42.80078125 11.55765625 42.80078125 23.76765625 42.80078125 36.34765625 C32.80078125 36.34765625 32.80078125 36.34765625 30.46875 34.4765625 C29.98019531 33.62964844 29.49164062 32.78273438 28.98828125 31.91015625 C28.44429687 31.00652344 27.9003125 30.10289062 27.33984375 29.171875 C26.83195312 28.23988281 26.3240625 27.30789063 25.80078125 26.34765625 C25.03894531 25.02701172 25.03894531 25.02701172 24.26171875 23.6796875 C23.07189664 21.58919 21.93094718 19.47099829 20.80078125 17.34765625 C20.47078125 23.61765625 20.14078125 29.88765625 19.80078125 36.34765625 C16.50078125 36.34765625 13.20078125 36.34765625 9.80078125 36.34765625 C9.47078125 33.04765625 9.14078125 29.74765625 8.80078125 26.34765625 C8.24390625 27.25515625 7.68703125 28.16265625 7.11328125 29.09765625 C4.55770994 32.68926999 2.11696182 35.38923671 -2.01171875 37.09765625 C-8.63098716 37.85414407 -13.2831593 37.69636915 -19.19921875 34.34765625 C-24.10901729 29.43785771 -25.95819488 25.33635222 -26.51171875 18.47265625 C-26.33070558 12.55578839 -24.58071187 7.97710967 -20.76171875 3.47265625 C-14.72729126 -1.53150313 -7.54440787 -2.23786166 0 0 Z M-15.19921875 11.34765625 C-17.05182745 15.05287366 -16.65705037 19.30347693 -16.19921875 23.34765625 C-14.3712676 26.66504908 -13.2442535 27.91892405 -9.76171875 29.34765625 C-6.37513863 29.34765625 -4.84640071 28.42247454 -2.19921875 26.34765625 C0.36469716 22.14890893 0.48447835 18.14208213 -0.19921875 13.34765625 C-2.13655842 9.77102916 -3.32082192 8.66537425 -7.13671875 7.28515625 C-11.09422596 7.3659217 -12.44516495 8.59360245 -15.19921875 11.34765625 Z " fill="#CDC6BC" transform="translate(1298.19921875,419.65234375)"/>
<path d="M0 0 C4.29 0 8.58 0 13 0 C16.63 10.23 20.26 20.46 24 31 C24.33 20.77 24.66 10.54 25 0 C35 0 35 0 37.296875 1.8359375 C37.77640625 2.67382812 38.2559375 3.51171875 38.75 4.375 C39.29269531 5.27734375 39.83539062 6.1796875 40.39453125 7.109375 C40.92433594 8.06328125 41.45414063 9.0171875 42 10 C43.14357606 11.87637758 44.28928582 13.75145704 45.4375 15.625 C46.283125 17.06875 47.12875 18.5125 48 20 C48.33 13.4 48.66 6.8 49 0 C51.97 0 54.94 0 58 0 C58 12.21 58 24.42 58 37 C48 37 48 37 45.66796875 35.12890625 C45.17941406 34.28199219 44.69085937 33.43507813 44.1875 32.5625 C43.64351562 31.65886719 43.09953125 30.75523437 42.5390625 29.82421875 C42.03117187 28.89222656 41.52328125 27.96023438 41 27 C40.23816406 25.67935547 40.23816406 25.67935547 39.4609375 24.33203125 C38.27111539 22.24153375 37.13016593 20.12334204 36 18 C35.67 24.27 35.34 30.54 35 37 C28.4 37 21.8 37 15 37 C13 33 13 33 13 30 C9.04 30.33 5.08 30.66 1 31 C0.34 32.98 -0.32 34.96 -1 37 C-4.63 37 -8.26 37 -12 37 C-8.04 24.79 -4.08 12.58 0 0 Z M6 11 C5.01 14.96 4.02 18.92 3 23 C5.31 23 7.62 23 10 23 C9.71788123 21.3733152 9.42397625 19.74867104 9.125 18.125 C8.88136719 16.76761719 8.88136719 16.76761719 8.6328125 15.3828125 C8.16955297 12.83494012 8.16955297 12.83494012 6 11 Z " fill="#CDC6BC" transform="translate(1417,419)"/>
<path d="M0 0 C2.69774259 1.72761841 4.18169276 3.53425789 5.9609375 6.203125 C6.0859375 8.890625 6.0859375 8.890625 5.9609375 11.203125 C4.50351287 11.28409303 3.04480943 11.34230274 1.5859375 11.390625 C0.77382812 11.42542969 -0.03828125 11.46023438 -0.875 11.49609375 C-1.58914063 11.39941406 -2.30328125 11.30273438 -3.0390625 11.203125 C-3.6990625 10.213125 -4.3590625 9.223125 -5.0390625 8.203125 C-8.62263491 7.95296627 -8.62263491 7.95296627 -12.0390625 8.203125 C-12.03344863 10.17330958 -12.03344863 10.17330958 -11.0390625 12.203125 C-8.16668739 13.43132487 -8.16668739 13.43132487 -4.7265625 14.203125 C-0.01303181 15.38546641 2.93384803 16.29163647 5.9609375 20.203125 C6.7109375 22.453125 6.7109375 22.453125 6.9609375 24.203125 C7.86585937 24.13351562 7.86585937 24.13351562 8.7890625 24.0625 C11.2343277 23.95206867 13.52838119 23.91544878 15.9609375 24.203125 C18.1484375 26.203125 18.1484375 26.203125 19.9609375 28.203125 C23.1287695 28.53760759 23.1287695 28.53760759 25.9609375 28.203125 C26.2909375 26.883125 26.6209375 25.563125 26.9609375 24.203125 C25.91292969 23.87699219 24.86492187 23.55085938 23.78515625 23.21484375 C22.40609575 22.77391965 21.02719788 22.33248668 19.6484375 21.890625 C18.95814453 21.67728516 18.26785156 21.46394531 17.55664062 21.24414062 C10.89012169 19.08637846 10.89012169 19.08637846 8.9609375 16.203125 C7.74066111 12.07889973 7.53083054 8.36694382 9.0234375 4.328125 C12.24757747 0.79197148 15.01780764 -0.57830621 19.80859375 -1.1171875 C26.15932161 -1.35327404 30.21784672 -1.16551124 34.9609375 3.203125 C37.1128812 6.43104055 37.16180193 7.48713309 36.9609375 11.203125 C35.50351287 11.28409303 34.04480943 11.34230274 32.5859375 11.390625 C31.77382812 11.42542969 30.96171875 11.46023438 30.125 11.49609375 C29.41085937 11.39941406 28.69671875 11.30273438 27.9609375 11.203125 C27.3009375 10.213125 26.6409375 9.223125 25.9609375 8.203125 C22.37736509 7.95296627 22.37736509 7.95296627 18.9609375 8.203125 C18.96655137 10.17330958 18.96655137 10.17330958 19.9609375 12.203125 C22.83331261 13.43132487 22.83331261 13.43132487 26.2734375 14.203125 C31.02712199 15.39553858 33.81095959 16.37227301 36.9609375 20.203125 C38.49308638 23.26742276 38.19032298 25.8196892 37.9609375 29.203125 C36.53813473 32.88567335 35.31199998 33.99535333 31.8984375 36.015625 C26.17986074 38.1313775 19.79971342 38.1613563 14.0859375 36.015625 C10.80969824 34.11540623 9.06770391 32.32113929 6.9609375 29.203125 C6.6103125 29.96625 6.2596875 30.729375 5.8984375 31.515625 C3.43599026 34.93127763 0.9580782 36.23932846 -3.0390625 37.203125 C-9.41591408 37.95033233 -14.44941894 37.39720703 -20.0390625 34.203125 C-23.11924916 31.22561123 -23.56325937 28.3901925 -24.0390625 24.203125 C-21.00484247 23.96972346 -18.06618055 23.84513539 -15.0390625 24.203125 C-12.8515625 26.203125 -12.8515625 26.203125 -11.0390625 28.203125 C-7.8712305 28.53760759 -7.8712305 28.53760759 -5.0390625 28.203125 C-4.7090625 26.883125 -4.3790625 25.563125 -4.0390625 24.203125 C-5.08707031 23.87699219 -6.13507813 23.55085938 -7.21484375 23.21484375 C-8.59390425 22.77391965 -9.97280212 22.33248668 -11.3515625 21.890625 C-12.04185547 21.67728516 -12.73214844 21.46394531 -13.44335938 21.24414062 C-20.10987831 19.08637846 -20.10987831 19.08637846 -22.0390625 16.203125 C-23.25933889 12.07889973 -23.46916946 8.36694382 -21.9765625 4.328125 C-16.56421514 -1.60799792 -7.47027198 -2.91941663 0 0 Z " fill="#CDC6BC" transform="translate(1077.0390625,419.796875)"/>
<path d="M0 0 C1.81701122 1.20547475 3.3840096 2.59104085 4.92578125 4.1328125 C5.25578125 2.4828125 5.58578125 0.8328125 5.92578125 -0.8671875 C16.15578125 -0.8671875 26.38578125 -0.8671875 36.92578125 -0.8671875 C36.92578125 1.7728125 36.92578125 4.4128125 36.92578125 7.1328125 C33.29578125 7.1328125 29.66578125 7.1328125 25.92578125 7.1328125 C25.92578125 16.7028125 25.92578125 26.2728125 25.92578125 36.1328125 C22.95578125 36.1328125 19.98578125 36.1328125 16.92578125 36.1328125 C16.92578125 26.5628125 16.92578125 16.9928125 16.92578125 7.1328125 C13.29578125 7.1328125 9.66578125 7.1328125 5.92578125 7.1328125 C5.92578125 8.4528125 5.92578125 9.7728125 5.92578125 11.1328125 C4.46835662 11.21378053 3.00965318 11.27199024 1.55078125 11.3203125 C0.73867187 11.35511719 -0.0734375 11.38992188 -0.91015625 11.42578125 C-1.62429688 11.32910156 -2.3384375 11.23242188 -3.07421875 11.1328125 C-3.73421875 10.1428125 -4.39421875 9.1528125 -5.07421875 8.1328125 C-8.65779116 7.88265377 -8.65779116 7.88265377 -12.07421875 8.1328125 C-12.06860488 10.10299708 -12.06860488 10.10299708 -11.07421875 12.1328125 C-8.20184364 13.36101237 -8.20184364 13.36101237 -4.76171875 14.1328125 C-0.00803426 15.32522608 2.77580334 16.30196051 5.92578125 20.1328125 C7.45793013 23.19711026 7.15516673 25.7493767 6.92578125 29.1328125 C5.50297848 32.81536085 4.27684373 33.92504083 0.86328125 35.9453125 C-4.89603648 38.0761383 -11.27692637 38.08943452 -17.01171875 35.8828125 C-20.05482799 34.14389293 -21.48798161 33.2171625 -23.07421875 30.1328125 C-23.76171875 26.8828125 -23.76171875 26.8828125 -24.07421875 24.1328125 C-21.03999872 23.89941096 -18.1013368 23.77482289 -15.07421875 24.1328125 C-12.88671875 26.1328125 -12.88671875 26.1328125 -11.07421875 28.1328125 C-7.90638675 28.46729509 -7.90638675 28.46729509 -5.07421875 28.1328125 C-4.74421875 26.8128125 -4.41421875 25.4928125 -4.07421875 24.1328125 C-5.12222656 23.80667969 -6.17023438 23.48054688 -7.25 23.14453125 C-8.6290605 22.70360715 -10.00795837 22.26217418 -11.38671875 21.8203125 C-12.07701172 21.60697266 -12.76730469 21.39363281 -13.47851562 21.17382812 C-20.14503456 19.01606596 -20.14503456 19.01606596 -22.07421875 16.1328125 C-23.29449514 12.00858723 -23.50432571 8.29663132 -22.01171875 4.2578125 C-16.63237482 -1.6421131 -7.39819834 -3.09303207 0 0 Z " fill="#CDC6BC" transform="translate(1374.07421875,419.8671875)"/>
<path d="M0 0 C3.3 0 6.6 0 10 0 C10 9.57 10 19.14 10 29 C14.89153471 28.9604321 14.89153471 28.9604321 19.78295898 28.90991211 C21.52221717 28.90275087 23.26145304 28.94975298 25 29 C25.33 29.33 25.66 29.66 26 30 C29.3 20.1 32.6 10.2 36 0 C40.29 0 44.58 0 49 0 C50.71500513 4.78506196 52.4238318 9.57226765 54.12695312 14.36157227 C54.70728688 15.99075866 55.28930881 17.61934472 55.87304688 19.24731445 C56.71147369 21.58649676 57.54381937 23.92776593 58.375 26.26953125 C58.63748535 26.99775589 58.8999707 27.72598053 59.17041016 28.47627258 C60.21999152 31.44909653 61 33.82225618 61 37 C57.7 37 54.4 37 51 37 C49 33 49 33 49 30 C45.04 30.33 41.08 30.66 37 31 C36.34 32.98 35.68 34.96 35 37 C23.45 37 11.9 37 0 37 C0 24.79 0 12.58 0 0 Z M42 11 C41.01 14.96 40.02 18.92 39 23 C41.31 23 43.62 23 46 23 C45.71788123 21.3733152 45.42397625 19.74867104 45.125 18.125 C44.88136719 16.76761719 44.88136719 16.76761719 44.6328125 15.3828125 C44.16955297 12.83494012 44.16955297 12.83494012 42 11 Z " fill="#CDC6BC" transform="translate(994,419)"/>
<path d="M0 0 C4.62 0 9.24 0 14 0 C16.7047418 6.89709158 18.85761818 13.90797742 21 21 C23.31 14.07 25.62 7.14 28 0 C32.62 0 37.24 0 42 0 C42 12.21 42 24.42 42 37 C39.03 37 36.06 37 33 37 C32.67 30.4 32.34 23.8 32 17 C30.06702402 23.20682726 30.06702402 23.20682726 28.14086914 29.41577148 C27.89973389 30.18477783 27.65859863 30.95378418 27.41015625 31.74609375 C27.16402588 32.53685303 26.91789551 33.3276123 26.66430664 34.14233398 C26 36 26 36 25 37 C22.36 37 19.72 37 17 37 C15.02 31.39 13.04 25.78 11 20 C10.67 25.61 10.34 31.22 10 37 C6.7 37 3.4 37 0 37 C0 24.79 0 12.58 0 0 Z M9 13 C10 17 10 17 10 17 Z " fill="#CCC5BB" transform="translate(669,419)"/>
<path d="M0 0 C4.62 0 9.24 0 14 0 C16.7047418 6.89709158 18.85761818 13.90797742 21 21 C23.31 14.07 25.62 7.14 28 0 C32.62 0 37.24 0 42 0 C42 12.21 42 24.42 42 37 C39.03 37 36.06 37 33 37 C32.67 30.4 32.34 23.8 32 17 C30.06702402 23.20682726 30.06702402 23.20682726 28.14086914 29.41577148 C27.89973389 30.18477783 27.65859863 30.95378418 27.41015625 31.74609375 C27.16402588 32.53685303 26.91789551 33.3276123 26.66430664 34.14233398 C26 36 26 36 25 37 C22.36 37 19.72 37 17 37 C15.02 31.39 13.04 25.78 11 20 C10.67 25.61 10.34 31.22 10 37 C6.7 37 3.4 37 0 37 C0 24.79 0 12.58 0 0 Z M9 13 C10 17 10 17 10 17 Z " fill="#CDC6BC" transform="translate(463,419)"/>
<path d="M0 0 C12.21 0 24.42 0 37 0 C37 12.21 37 24.42 37 37 C33.7 37 30.4 37 27 37 C27 27.43 27 17.86 27 8 C21.39 8 15.78 8 10 8 C10 10.64 10 13.28 10 16 C14.95 16 19.9 16 25 16 C25 18.64 25 21.28 25 24 C20.05 24 15.1 24 10 24 C10 28.29 10 32.58 10 37 C6.7 37 3.4 37 0 37 C0 24.79 0 12.58 0 0 Z " fill="#CDC6BC" transform="translate(1128,419)"/>
<path d="M0 0 C10 0 10 0 12.296875 1.8359375 C12.77640625 2.67382812 13.2559375 3.51171875 13.75 4.375 C14.29269531 5.27734375 14.83539062 6.1796875 15.39453125 7.109375 C15.92433594 8.06328125 16.45414063 9.0171875 17 10 C18.14357606 11.87637758 19.28928582 13.75145704 20.4375 15.625 C21.283125 17.06875 22.12875 18.5125 23 20 C23.33 13.4 23.66 6.8 24 0 C26.97 0 29.94 0 33 0 C33 12.21 33 24.42 33 37 C23 37 23 37 20.66796875 35.12890625 C20.17941406 34.28199219 19.69085937 33.43507813 19.1875 32.5625 C18.64351562 31.65886719 18.09953125 30.75523437 17.5390625 29.82421875 C17.03117188 28.89222656 16.52328125 27.96023438 16 27 C15.49210938 26.11957031 14.98421875 25.23914063 14.4609375 24.33203125 C13.27111539 22.24153375 12.13016593 20.12334204 11 18 C10.67 24.27 10.34 30.54 10 37 C6.7 37 3.4 37 0 37 C0 24.79 0 12.58 0 0 Z " fill="#CCC5BB" transform="translate(742,419)"/>
<path d="M0 0 C13.53 0 27.06 0 41 0 C41 12.21 41 24.42 41 37 C37.7 37 34.4 37 31 37 C31 27.43 31 17.86 31 8 C27.37 8 23.74 8 20 8 C20 17.57 20 27.14 20 37 C17.03 37 14.06 37 11 37 C11 27.43 11 17.86 11 8 C7.37 8 3.74 8 0 8 C0 5.36 0 2.72 0 0 Z " fill="#CDC6BC" transform="translate(561,419)"/>
<path d="M0 0 C18 0 18 0 26 3 C32.12189078 9.25214377 32.36058604 14.08565407 32.2734375 22.5390625 C31.89455838 27.33458959 31.10882963 29.3331753 28 33 C22.03453827 37.34850763 17.29585621 37.5050891 10.0625 37.25 C6.741875 37.1675 3.42125 37.085 0 37 C0 24.79 0 12.58 0 0 Z M10 8 C10 14.93 10 21.86 10 29 C17.45570612 29.81294768 17.45570612 29.81294768 20.4375 27.125 C23.31825663 23.20717098 23.50249485 19.75999668 23 15 C21.64039429 11.70832303 20.73963128 10.4087436 17.625 8.6875 C14.64611259 7.78886717 14.64611259 7.78886717 10 8 Z " fill="#CDC6BC" transform="translate(1478,419)"/>
<path d="M0 0 C18 0 18 0 26 3 C32.12189078 9.25214377 32.36058604 14.08565407 32.2734375 22.5390625 C31.89455838 27.33458959 31.10882963 29.3331753 28 33 C22.03453827 37.34850763 17.29585621 37.5050891 10.0625 37.25 C6.741875 37.1675 3.42125 37.085 0 37 C0 24.79 0 12.58 0 0 Z M10 8 C10 14.93 10 21.86 10 29 C17.45570612 29.81294768 17.45570612 29.81294768 20.4375 27.125 C23.31825663 23.20717098 23.50249485 19.75999668 23 15 C21.64039429 11.70832303 20.73963128 10.4087436 17.625 8.6875 C14.64611259 7.78886717 14.64611259 7.78886717 10 8 Z " fill="#CDC6BC" transform="translate(624,419)"/>
<path d="M0 0 C18 0 18 0 26 3 C32.12189078 9.25214377 32.36058604 14.08565407 32.2734375 22.5390625 C31.89455838 27.33458959 31.10882963 29.3331753 28 33 C22.03453827 37.34850763 17.29585621 37.5050891 10.0625 37.25 C6.741875 37.1675 3.42125 37.085 0 37 C0 24.79 0 12.58 0 0 Z M10 8 C10 14.93 10 21.86 10 29 C17.45570612 29.81294768 17.45570612 29.81294768 20.4375 27.125 C23.31825663 23.20717098 23.50249485 19.75999668 23 15 C21.64039429 11.70832303 20.73963128 10.4087436 17.625 8.6875 C14.64611259 7.78886717 14.64611259 7.78886717 10 8 Z " fill="#CDC6BC" transform="translate(229,419)"/>
<path d="M0 0 C2.69774259 1.72761841 4.18169276 3.53425789 5.9609375 6.203125 C6.0859375 8.890625 6.0859375 8.890625 5.9609375 11.203125 C4.50351287 11.28409303 3.04480943 11.34230274 1.5859375 11.390625 C0.77382813 11.42542969 -0.03828125 11.46023438 -0.875 11.49609375 C-1.58914063 11.39941406 -2.30328125 11.30273438 -3.0390625 11.203125 C-3.6990625 10.213125 -4.3590625 9.223125 -5.0390625 8.203125 C-8.62263491 7.95296627 -8.62263491 7.95296627 -12.0390625 8.203125 C-12.03344863 10.17330958 -12.03344863 10.17330958 -11.0390625 12.203125 C-8.16668739 13.43132487 -8.16668739 13.43132487 -4.7265625 14.203125 C0.02712199 15.39553858 2.81095959 16.37227301 5.9609375 20.203125 C7.49308638 23.26742276 7.19032298 25.8196892 6.9609375 29.203125 C5.53813473 32.88567335 4.31199998 33.99535333 0.8984375 36.015625 C-4.86088023 38.1464508 -11.24177012 38.15974702 -16.9765625 35.953125 C-20.01967174 34.21420543 -21.45282536 33.287475 -23.0390625 30.203125 C-23.7265625 26.953125 -23.7265625 26.953125 -24.0390625 24.203125 C-21.00484247 23.96972346 -18.06618055 23.84513539 -15.0390625 24.203125 C-12.8515625 26.203125 -12.8515625 26.203125 -11.0390625 28.203125 C-7.8712305 28.53760759 -7.8712305 28.53760759 -5.0390625 28.203125 C-4.7090625 26.883125 -4.3790625 25.563125 -4.0390625 24.203125 C-5.08707031 23.87699219 -6.13507812 23.55085938 -7.21484375 23.21484375 C-8.59390425 22.77391965 -9.97280212 22.33248668 -11.3515625 21.890625 C-12.04185547 21.67728516 -12.73214844 21.46394531 -13.44335938 21.24414062 C-20.10987831 19.08637846 -20.10987831 19.08637846 -22.0390625 16.203125 C-23.25933889 12.07889973 -23.46916946 8.36694382 -21.9765625 4.328125 C-16.56421514 -1.60799792 -7.47027198 -2.91941663 0 0 Z " fill="#CCC5BB" transform="translate(800.0390625,419.796875)"/>
<path d="M0 0 C4.29 0 8.58 0 13 0 C14.71500513 4.78506196 16.4238318 9.57226765 18.12695312 14.36157227 C18.70728688 15.99075866 19.28930881 17.61934472 19.87304688 19.24731445 C20.71147369 21.58649676 21.54381937 23.92776593 22.375 26.26953125 C22.63748535 26.99775589 22.8999707 27.72598053 23.17041016 28.47627258 C24.21999152 31.44909653 25 33.82225618 25 37 C21.7 37 18.4 37 15 37 C13 33 13 33 13 30 C9.04 30.33 5.08 30.66 1 31 C0.34 32.98 -0.32 34.96 -1 37 C-4.63 37 -8.26 37 -12 37 C-8.04 24.79 -4.08 12.58 0 0 Z M6 11 C5.01 14.96 4.02 18.92 3 23 C5.31 23 7.62 23 10 23 C9.71788123 21.3733152 9.42397625 19.74867104 9.125 18.125 C8.88136719 16.76761719 8.88136719 16.76761719 8.6328125 15.3828125 C8.16955297 12.83494012 8.16955297 12.83494012 6 11 Z " fill="#CDC6BC" transform="translate(1210,419)"/>
<path d="M0 0 C8.91 0 17.82 0 27 0 C27 2.64 27 5.28 27 8 C21.39 8 15.78 8 10 8 C10 10.31 10 12.62 10 15 C15.28 15 20.56 15 26 15 C26 17.64 26 20.28 26 23 C20.72 23 15.44 23 10 23 C10 24.98 10 26.96 10 29 C15.61 29 21.22 29 27 29 C27 31.64 27 34.28 27 37 C18.09 37 9.18 37 0 37 C0 24.79 0 12.58 0 0 Z " fill="#CBC4BA" transform="translate(713,419)"/>
<path d="M0 0 C2.97 0 5.94 0 9 0 C9.01981934 0.70608398 9.03963867 1.41216797 9.06005859 2.13964844 C9.15540415 5.34346994 9.26504513 8.54664801 9.375 11.75 C9.4059375 12.86117188 9.436875 13.97234375 9.46875 15.1171875 C9.50742187 16.18710937 9.54609375 17.25703125 9.5859375 18.359375 C9.6173584 19.34389648 9.6487793 20.32841797 9.68115234 21.34277344 C10.0057289 24.04774375 10.49880943 25.73682671 12 28 C15.29427581 29.09809194 16.66411172 29.11196276 20 28 C21.34106405 25.3178719 21.21450419 23.11601968 21.31640625 20.1171875 C21.35830078 18.95058594 21.40019531 17.78398437 21.44335938 16.58203125 C21.48267578 15.35871094 21.52199219 14.13539063 21.5625 12.875 C21.60568359 11.64394531 21.64886719 10.41289062 21.69335938 9.14453125 C21.79968704 6.09647147 21.90171781 3.0483281 22 0 C25.3 0 28.6 0 32 0 C32.08760181 4.18736668 32.14059435 8.37449531 32.1875 12.5625 C32.21263672 13.74392578 32.23777344 14.92535156 32.26367188 16.14257812 C32.31736937 22.53258 32.26456566 27.42464915 29 33 C24.08113681 37.67292003 20.0548314 38.29503443 13.50390625 38.21875 C8.11105888 37.74761201 4.41419213 35.04644993 1 31 C-0.11911712 27.64264863 -0.11365586 25.11794614 -0.09765625 21.58203125 C-0.09443359 20.32841797 -0.09121094 19.07480469 -0.08789062 17.78320312 C-0.07951172 16.47287109 -0.07113281 15.16253906 -0.0625 13.8125 C-0.05748317 12.47721519 -0.05292059 11.14192859 -0.04882812 9.80664062 C-0.03702695 6.53771527 -0.02056297 3.26888009 0 0 Z " fill="#CDC6BC" transform="translate(507,419)"/>
<path d="M0 0 C3.8227698 2.01757295 6.04313745 4.35389988 7.765625 8.27734375 C8.453125 11.08984375 8.453125 11.08984375 8.765625 13.27734375 C5.38578385 13.56759728 2.13422865 13.73645613 -1.234375 13.27734375 C-2.62014423 11.65401408 -3.96078768 9.9900991 -5.234375 8.27734375 C-8.82908504 8.02895994 -8.82908504 8.02895994 -12.234375 9.27734375 C-15.04085395 12.18752631 -15.64595449 14.27798589 -15.609375 18.27734375 C-15.61710937 19.12296875 -15.62484375 19.96859375 -15.6328125 20.83984375 C-15.15564159 23.75900698 -14.24090496 25.13127094 -12.234375 27.27734375 C-9.39799712 28.29553068 -7.90672086 28.50786233 -5.046875 27.52734375 C-2.94323656 26.24150502 -2.94323656 26.24150502 -1.234375 23.27734375 C1.1484375 22.984375 1.1484375 22.984375 3.890625 23.08984375 C4.80070312 23.11691406 5.71078125 23.14398438 6.6484375 23.171875 C7.34710937 23.20667969 8.04578125 23.24148438 8.765625 23.27734375 C7.74712352 28.93568529 6.03911921 31.47054455 1.6171875 35.11328125 C-2.57987483 37.75194069 -7.40199316 37.76601158 -12.234375 37.27734375 C-17.94619723 35.53475392 -20.86269317 33.19036584 -24.234375 28.27734375 C-26.97785414 22.26781801 -27.10196437 16.29014179 -25.046875 10.08984375 C-23.21840674 5.69979496 -20.50462097 2.67897387 -16.4375 0.16796875 C-11.46036617 -1.84406408 -5.07275039 -1.64066228 0 0 Z " fill="#CDC6BC" transform="translate(1192.234375,419.72265625)"/>
<path d="M0 0 C3.8227698 2.01757295 6.04313745 4.35389988 7.765625 8.27734375 C8.453125 11.08984375 8.453125 11.08984375 8.765625 13.27734375 C5.38578385 13.56759728 2.13422865 13.73645613 -1.234375 13.27734375 C-2.62014423 11.65401408 -3.96078768 9.9900991 -5.234375 8.27734375 C-8.82908504 8.02895994 -8.82908504 8.02895994 -12.234375 9.27734375 C-15.04085395 12.18752631 -15.64595449 14.27798589 -15.609375 18.27734375 C-15.61710938 19.12296875 -15.62484375 19.96859375 -15.6328125 20.83984375 C-15.15564159 23.75900698 -14.24090496 25.13127094 -12.234375 27.27734375 C-9.39799712 28.29553068 -7.90672086 28.50786233 -5.046875 27.52734375 C-2.94323656 26.24150502 -2.94323656 26.24150502 -1.234375 23.27734375 C1.1484375 22.984375 1.1484375 22.984375 3.890625 23.08984375 C4.80070313 23.11691406 5.71078125 23.14398438 6.6484375 23.171875 C7.34710937 23.20667969 8.04578125 23.24148438 8.765625 23.27734375 C7.74712352 28.93568529 6.03911921 31.47054455 1.6171875 35.11328125 C-2.57987483 37.75194069 -7.40199316 37.76601158 -12.234375 37.27734375 C-17.94619723 35.53475392 -20.86269317 33.19036584 -24.234375 28.27734375 C-26.97785414 22.26781801 -27.10196437 16.29014179 -25.046875 10.08984375 C-23.21840674 5.69979496 -20.50462097 2.67897387 -16.4375 0.16796875 C-11.46036617 -1.84406408 -5.07275039 -1.64066228 0 0 Z " fill="#CDC6BC" transform="translate(984.234375,419.72265625)"/>
<path d="M0 0 C3.8227698 2.01757295 6.04313745 4.35389988 7.765625 8.27734375 C8.453125 11.08984375 8.453125 11.08984375 8.765625 13.27734375 C5.38578385 13.56759728 2.13422865 13.73645613 -1.234375 13.27734375 C-2.62014423 11.65401408 -3.96078768 9.9900991 -5.234375 8.27734375 C-8.82908504 8.02895994 -8.82908504 8.02895994 -12.234375 9.27734375 C-15.04085395 12.18752631 -15.64595449 14.27798589 -15.609375 18.27734375 C-15.61710937 19.12296875 -15.62484375 19.96859375 -15.6328125 20.83984375 C-15.15564159 23.75900698 -14.24090496 25.13127094 -12.234375 27.27734375 C-9.39799712 28.29553068 -7.90672086 28.50786233 -5.046875 27.52734375 C-2.94323656 26.24150502 -2.94323656 26.24150502 -1.234375 23.27734375 C1.1484375 22.984375 1.1484375 22.984375 3.890625 23.08984375 C4.80070312 23.11691406 5.71078125 23.14398438 6.6484375 23.171875 C7.34710938 23.20667969 8.04578125 23.24148438 8.765625 23.27734375 C7.74712352 28.93568529 6.03911921 31.47054455 1.6171875 35.11328125 C-2.57987483 37.75194069 -7.40199316 37.76601158 -12.234375 37.27734375 C-17.94619723 35.53475392 -20.86269317 33.19036584 -24.234375 28.27734375 C-26.97785414 22.26781801 -27.10196437 16.29014179 -25.046875 10.08984375 C-23.21840674 5.69979496 -20.50462097 2.67897387 -16.4375 0.16796875 C-11.46036617 -1.84406408 -5.07275039 -1.64066228 0 0 Z " fill="#CDC6BC" transform="translate(446.234375,419.72265625)"/>
<path d="M0 0 C2.4886368 -0.00205113 4.97726623 -0.00580894 7.46590042 -0.00990677 C11.44971629 -0.01584449 15.43349323 -0.0158544 19.41731071 -0.011446 C20.89425826 -0.01041947 22.3712079 -0.01094167 23.84815407 -0.01320457 C33.1974905 -0.02502699 42.43721463 0.32424458 51.75395584 1.12293625 C51.75395584 1.45293625 51.75395584 1.78293625 51.75395584 2.12293625 C39.75473116 4.64642513 28.35917865 5.54602745 16.11699295 5.46351242 C14.32140492 5.46266362 12.52581586 5.4631462 10.73022842 5.46483994 C5.91311281 5.46569147 1.09622688 5.44820417 -3.72083592 5.42711806 C-8.7762998 5.40820886 -13.83177046 5.4065897 -18.88726425 5.40304184 C-28.434893 5.39376284 -37.98241719 5.36920589 -47.53000015 5.33899337 C-58.41046279 5.3053194 -69.29093074 5.28893085 -80.17143261 5.27390707 C-102.52969415 5.24265208 -124.88786326 5.18997328 -147.24604416 5.12293625 C-147.24604416 4.79293625 -147.24604416 4.46293625 -147.24604416 4.12293625 C-134.47262151 2.30048614 -121.86911955 1.9422081 -108.97822189 2.10926437 C-101.09623707 2.19516599 -93.30365626 1.97236775 -85.43661118 1.52259445 C-77.18830099 1.05105267 -68.94254952 0.76398704 -60.68354416 0.56043625 C-59.85117233 0.53958969 -59.01880051 0.51874313 -58.16120529 0.49726486 C-38.77694317 0.03403308 -19.38872867 0.01256534 0 0 Z " fill="#CCC5BB" transform="translate(1246.2460441589355,401.8770637512207)"/>
<path d="M0 0 C3.63 0 7.26 0 11 0 C13.31 4.29 15.62 8.58 18 13 C20.31 8.71 22.62 4.42 25 0 C28.63 0 32.26 0 36 0 C34.76066229 4.53243505 32.84666893 7.97687508 30.31787109 11.86352539 C24.81969982 20.37334088 22.44392106 26.67982903 23 37 C20.03 37 17.06 37 14 37 C14.00394775 36.20368164 14.00789551 35.40736328 14.01196289 34.58691406 C13.73122501 25.42826149 11.22867353 19.45424743 6.4375 11.75 C5.22700111 9.72447411 4.01731707 7.69846095 2.80859375 5.671875 C2.00119751 4.35848145 2.00119751 4.35848145 1.17749023 3.01855469 C0 1 0 1 0 0 Z " fill="#CDC6BC" transform="translate(258,419)"/>
<path d="M0 0 C10.23 0 20.46 0 31 0 C31 2.64 31 5.28 31 8 C27.37 8 23.74 8 20 8 C20 17.57 20 27.14 20 37 C17.03 37 14.06 37 11 37 C11 27.43 11 17.86 11 8 C7.37 8 3.74 8 0 8 C0 5.36 0 2.72 0 0 Z " fill="#CDC6BC" transform="translate(1229,419)"/>
<path d="M0 0 C3.3 0 6.6 0 10 0 C10 9.57 10 19.14 10 29 C14.95 29 19.9 29 25 29 C25 31.64 25 34.28 25 37 C16.75 37 8.5 37 0 37 C0 24.79 0 12.58 0 0 Z " fill="#CDC6BC" transform="translate(926,419)"/>
<path d="M0 0 C3.3 0 6.6 0 10 0 C10 9.57 10 19.14 10 29 C14.95 29 19.9 29 25 29 C25 31.64 25 34.28 25 37 C16.75 37 8.5 37 0 37 C0 24.79 0 12.58 0 0 Z " fill="#CDC6BC" transform="translate(540,419)"/>
<path d="M0 0 C3.3 0 6.6 0 10 0 C10 12.21 10 24.42 10 37 C6.7 37 3.4 37 0 37 C0 24.79 0 12.58 0 0 Z " fill="#CBC4BA" transform="translate(808,419)"/>
<path d="M0 0 C3.3 0 6.6 0 10 0 C10 12.21 10 24.42 10 37 C6.7 37 3.4 37 0 37 C0 24.79 0 12.58 0 0 Z " fill="#CBC4BA" transform="translate(658,419)"/>
<path d="M0 0 C3.3 0 6.6 0 10 0 C10 12.21 10 24.42 10 37 C6.7 37 3.4 37 0 37 C0 24.79 0 12.58 0 0 Z " fill="#CDC6BC" transform="translate(1261,419)"/>
<path d="M0 0 C3.3 0 6.6 0 10 0 C10 12.21 10 24.42 10 37 C6.7 37 3.4 37 0 37 C0 24.79 0 12.58 0 0 Z " fill="#CDC6BC" transform="translate(1116,419)"/>
<path d="M0 0 C3.3 0 6.6 0 10 0 C10 12.21 10 24.42 10 37 C6.7 37 3.4 37 0 37 C0 24.79 0 12.58 0 0 Z " fill="#CDC6BC" transform="translate(409,419)"/>
<path d="M0 0 C9.00555283 -0.28363946 18.15008672 0.66139317 25.4765625 6.15625 C1.7165625 6.15625 -22.0434375 6.15625 -46.5234375 6.15625 C-46.5234375 5.82625 -46.5234375 5.49625 -46.5234375 5.15625 C-32.90783955 2.31958496 -19.65460814 0.47144282 -5.74121094 0.203125 C-3.82670416 0.16265986 -1.91305423 0.08483611 0 0 Z " fill="#CBC4BB" transform="translate(1636.5234375,400.84375)"/>
<path d="M0 0 C5.61 0 11.22 0 17 0 C17 2.64 17 5.28 17 8 C11.39 8 5.78 8 0 8 C0 5.36 0 2.72 0 0 Z " fill="#CDC6BC" transform="translate(605,434)"/>
</svg>
